# xmcd
#
# Track frame offsets:
# 150
# 10944
# 23602
# 34906
# 50134
# 62164
# 77284
# 91187
# 104246
# 117863
# 132733
# 153233
# 166905
# 182998
# 193613
# 207620
# 219929
# 229673
# 242398
# 254258
#
# Disc length: 3566 seconds
#
# Revision: 1
# Processed by: cddbd v1.5.2PL0 Copyright (c) Steve Scherf et al.
# Submitted via: Axialis_AX_CDPlayer 2.6
#
DISCID=110dec14
DTITLE=Various Artist - 20 All Time Country Hits
DYEAR=2003
DGENRE=Country
TTITLE0=Tex Ritter - Green Grow the Lilacs
TTITLE1=David Allan Coe - I Haven't Seen Mama in Years
TTITLE2=Jimmy Wakely - Beautiful Brown Eyes
TTITLE3=Gary Puckett - Honey Hungry
TTITLE4=Dobie Gray - I Can't Stop Now
TTITLE5=Carl Smith - I Just Loved Her For The Last Time Again
TTITLE6=Jack Greene - California Turnarounds
TTITLE7=Johnny Paycheck - Heaven's Almost as Big as Texas
TTITLE8=Red Simpson - I Got a Beaver on My Lap
TTITLE9=Ace Cannon - Waltz Medley
TTITLE10=Red Sovine - Daddy
TTITLE11=Whitey Shaffer - I Wish I'd Never Borrowed Anybody's Angel
TTITLE12=Mac Wiseman /18 Wheels Hummin' Home Sweet Home
TTITLE13=David Houston - Maiden's Prayer
TTITLE14=Jack Greene - Beautiful Lady
TTITLE15=Mike and Mickey - We Don't Want the World
TTITLE16=Wanda Jackson - I Still Believe in You
TTITLE17=Mary Kay James - Last Days of Love
TTITLE18=Mike Lansford - How Can I Tell My Dreams Not to Sleep with You
TTITLE19=Claude King - Times and Things Keep Changing
EXTD=YEAR: 2003 -     2  for The Price Of 1 -  T. Graham Brown and Other Coun
EXTD=try \nStars - Disc  2 - 31 Songs 
EXTT0=
EXTT1=
EXTT2=
EXTT3=
EXTT4=
EXTT5=
EXTT6=
EXTT7=
EXTT8=
EXTT9=
EXTT10=
EXTT11=
EXTT12=
EXTT13=
EXTT14=
EXTT15=
EXTT16=
EXTT17=
EXTT18=
EXTT19=
PLAYORDER=
